<svg xmlns="http://www.w3.org/2000/svg" viewBox="0 0 12.276 11.071"><defs><style>.a{fill:#fff}</style></defs><g transform="translate(12.276 11.071) rotate(180)"><path class="a" d="M.773,0h6.18a.78.78,0,0,1,.773.787.78.78,0,0,1-.773.787H.773A.78.78,0,0,1,0,.787.78.78,0,0,1,.773,0Z" transform="translate(4.55 4.724)"></path><g transform="translate(0 0)"><path class="a" d="M.759,0H6.6a.759.759,0,0,1,0,1.517H.759A.759.759,0,0,1,.759,0Z" transform="translate(5.889 0.975) rotate(130)"></path><path class="a" d="M.759,0H6.6a.759.759,0,0,1,0,1.517H.759A.759.759,0,0,1,.759,0Z" transform="translate(4.727 11.071) rotate(-130)"></path></g></g></svg>