<svg xmlns="http://www.w3.org/2000/svg" width="744.647" height="747.932" viewBox="0 0 744.647 747.932"><g transform="translate(-14.953 -12.476)"><path d="M10.7,0H29.18A25.174,25.174,0,0,0,39.453-1.895,14.636,14.636,0,0,0,46-7.324a15.239,15.239,0,0,0,2.285-8.457v-.078a13.917,13.917,0,0,0-1.543-6.621,12.693,12.693,0,0,0-4.355-4.746,15.438,15.438,0,0,0-6.68-2.3v-.625a10.931,10.931,0,0,0,4.922-2.266,13.085,13.085,0,0,0,3.5-4.336,12,12,0,0,0,1.309-5.508v-.078a13.509,13.509,0,0,0-2.012-7.441,13.143,13.143,0,0,0-5.742-4.863,21.2,21.2,0,0,0-8.926-1.719H10.7v6.211H27.266q5.234,0,8.145,2.363a8.094,8.094,0,0,1,2.91,6.66v.078A7.68,7.68,0,0,1,35.1-34.336q-3.223,2.266-9.629,2.266H10.7v6.055H27.461a22.327,22.327,0,0,1,7.52,1.094,9.106,9.106,0,0,1,4.551,3.281,9.272,9.272,0,0,1,1.523,5.43v.078A8.77,8.77,0,0,1,37.773-8.75q-3.281,2.539-9.648,2.539H10.7ZM7.188,0h7.031V-56.367H7.188Z" transform="translate(422.36 66.67) rotate(10.23)" fill="#1d1d1b"/><path d="M23.516.742a21.907,21.907,0,0,0,6.7-.957,17.667,17.667,0,0,0,5.176-2.578,15.466,15.466,0,0,0,3.574-3.633,12.939,12.939,0,0,0,1.934-4.16l.078-.312h-6.8l-.156.352a7.281,7.281,0,0,1-1.914,2.461,10.884,10.884,0,0,1-3.477,1.992,14.273,14.273,0,0,1-4.961.781,12.6,12.6,0,0,1-6.641-1.7A11.176,11.176,0,0,1,12.7-11.895a17.657,17.657,0,0,1-1.523-7.676v-2.7a18.265,18.265,0,0,1,1.563-7.969,11.408,11.408,0,0,1,4.238-4.9,11.284,11.284,0,0,1,6.074-1.66,11.4,11.4,0,0,1,6.016,1.582,10.6,10.6,0,0,1,4.1,4.785,19.472,19.472,0,0,1,1.484,8.164v2.7l3.359-4.961H7.734v5.43h33.75v-2.656a25.921,25.921,0,0,0-2.207-11.035,17.2,17.2,0,0,0-6.328-7.4,17.812,17.812,0,0,0-9.863-2.656,17.838,17.838,0,0,0-9.961,2.773,18.242,18.242,0,0,0-6.582,7.7A26.533,26.533,0,0,0,4.219-20.937v.039A26.339,26.339,0,0,0,6.543-9.434a17.4,17.4,0,0,0,6.641,7.52A19.331,19.331,0,0,0,23.516.742Z" transform="translate(466.43 74.63) rotate(17.62)" fill="#1d1d1b"/><path d="M6.719,0h6.8V-58.828h-6.8Z" transform="translate(503.12 86.71) rotate(22.36)" fill="#1d1d1b"/><path d="M6.719,0h6.8V-58.828h-6.8Z" transform="translate(517 92.39) rotate(25.05)" fill="#1d1d1b"/><path d="M23.516.742a21.907,21.907,0,0,0,6.7-.957,17.667,17.667,0,0,0,5.176-2.578,15.466,15.466,0,0,0,3.574-3.633,12.939,12.939,0,0,0,1.934-4.16l.078-.312h-6.8l-.156.352a7.281,7.281,0,0,1-1.914,2.461,10.884,10.884,0,0,1-3.477,1.992,14.273,14.273,0,0,1-4.961.781,12.6,12.6,0,0,1-6.641-1.7A11.176,11.176,0,0,1,12.7-11.895a17.657,17.657,0,0,1-1.523-7.676v-2.7a18.265,18.265,0,0,1,1.563-7.969,11.408,11.408,0,0,1,4.238-4.9,11.284,11.284,0,0,1,6.074-1.66,11.4,11.4,0,0,1,6.016,1.582,10.6,10.6,0,0,1,4.1,4.785,19.472,19.472,0,0,1,1.484,8.164v2.7l3.359-4.961H7.734v5.43h33.75v-2.656a25.921,25.921,0,0,0-2.207-11.035,17.2,17.2,0,0,0-6.328-7.4,17.812,17.812,0,0,0-9.863-2.656,17.838,17.838,0,0,0-9.961,2.773,18.242,18.242,0,0,0-6.582,7.7A26.533,26.533,0,0,0,4.219-20.937v.039A26.339,26.339,0,0,0,6.543-9.434a17.4,17.4,0,0,0,6.641,7.52A19.331,19.331,0,0,0,23.516.742Z" transform="matrix(0.868, 0.497, -0.497, 0.868, 529.99, 97.8)" fill="#1d1d1b"/><path d="M6.328,0h6.8V-24.922a13.928,13.928,0,0,1,1.348-6.367,9.756,9.756,0,0,1,3.809-4.1,11.288,11.288,0,0,1,5.82-1.445q5.039,0,7.441,2.754t2.4,8.457V0h6.8V-27.266q0-7.5-3.809-11.543T26.016-42.852A14.371,14.371,0,0,0,18.359-41a12.071,12.071,0,0,0-4.609,5.215h-.625v-6.328h-6.8Z" transform="translate(562.81 116.31) rotate(36.59)" fill="#1d1d1b"/><path d="M7.188,0H13.75V-43.047h3.438L9.336-54.8,31.992,0H37.93l22.7-54.8L52.734-43.047h3.438V0h6.563V-56.367H54.57L35.273-9.336h-.625l-19.3-47.031H7.188Z" transform="matrix(0.556, 0.831, -0.831, 0.556, 636.94, 180.72)" fill="#1d1d1b"/><path d="M17.891.742a16.347,16.347,0,0,0,5.234-.8A13.338,13.338,0,0,0,27.4-2.422a14.462,14.462,0,0,0,3.223-3.789h.625V0h6.8V-28.828a14.538,14.538,0,0,0-1.855-7.52,12.068,12.068,0,0,0-5.43-4.824,20.432,20.432,0,0,0-8.73-1.68,21.691,21.691,0,0,0-8.008,1.387A14.742,14.742,0,0,0,8.3-37.6a11.317,11.317,0,0,0-2.754,5.8l-.039.234h6.8l.039-.117a6.684,6.684,0,0,1,3.242-3.809A12.686,12.686,0,0,1,21.8-36.836q4.727,0,7.09,2.051a7.46,7.46,0,0,1,2.363,5.957V-15.7a9.7,9.7,0,0,1-1.543,5.391,10.838,10.838,0,0,1-4.238,3.77A13.3,13.3,0,0,1,19.3-5.156,10.026,10.026,0,0,1,13.2-6.934a5.822,5.822,0,0,1-2.422-4.98v-.078a5.785,5.785,0,0,1,2.207-4.844Q15.2-18.555,20-18.828l14.648-.937V-25.2l-15.469.938q-7.344.43-11.348,3.613a10.63,10.63,0,0,0-4,8.809v.078A11.781,11.781,0,0,0,5.684-5.117,12.215,12.215,0,0,0,10.723-.781,16.4,16.4,0,0,0,17.891.742Z" transform="translate(670.48 231.85) rotate(64.78)" fill="#1d1d1b"/><path d="M6.484,0h6.8V-42.109h-6.8ZM9.922-50.234a4.488,4.488,0,0,0,3.32-1.387,4.54,4.54,0,0,0,1.367-3.3,4.52,4.52,0,0,0-1.367-3.32,4.52,4.52,0,0,0-3.32-1.367,4.54,4.54,0,0,0-3.3,1.367,4.488,4.488,0,0,0-1.387,3.32,4.508,4.508,0,0,0,1.387,3.3A4.508,4.508,0,0,0,9.922-50.234Z" transform="translate(686.26 266.26) rotate(69.45)" fill="#1d1d1b"/><path d="M6.719,0h6.8V-58.828h-6.8Z" transform="matrix(0.306, 0.952, -0.952, 0.306, 691.6, 280.42)" fill="#1d1d1b"/><path d="M23.516.742a21.907,21.907,0,0,0,6.7-.957,17.667,17.667,0,0,0,5.176-2.578,15.466,15.466,0,0,0,3.574-3.633,12.939,12.939,0,0,0,1.934-4.16l.078-.312h-6.8l-.156.352a7.281,7.281,0,0,1-1.914,2.461,10.884,10.884,0,0,1-3.477,1.992,14.273,14.273,0,0,1-4.961.781,12.6,12.6,0,0,1-6.641-1.7A11.176,11.176,0,0,1,12.7-11.895a17.657,17.657,0,0,1-1.523-7.676v-2.7a18.265,18.265,0,0,1,1.563-7.969,11.408,11.408,0,0,1,4.238-4.9,11.284,11.284,0,0,1,6.074-1.66,11.4,11.4,0,0,1,6.016,1.582,10.6,10.6,0,0,1,4.1,4.785,19.472,19.472,0,0,1,1.484,8.164v2.7l3.359-4.961H7.734v5.43h33.75v-2.656a25.921,25.921,0,0,0-2.207-11.035,17.2,17.2,0,0,0-6.328-7.4,17.812,17.812,0,0,0-9.863-2.656,17.838,17.838,0,0,0-9.961,2.773,18.242,18.242,0,0,0-6.582,7.7A26.533,26.533,0,0,0,4.219-20.937v.039A26.339,26.339,0,0,0,6.543-9.434a17.4,17.4,0,0,0,6.641,7.52A19.331,19.331,0,0,0,23.516.742Z" transform="translate(696.48 293.61) rotate(76.91)" fill="#1d1d1b"/><path d="M6.328,0h6.8V-24.922a13.928,13.928,0,0,1,1.348-6.367,9.756,9.756,0,0,1,3.809-4.1,11.288,11.288,0,0,1,5.82-1.445q5.039,0,7.441,2.754t2.4,8.457V0h6.8V-27.266q0-7.5-3.809-11.543T26.016-42.852A14.371,14.371,0,0,0,18.359-41a12.071,12.071,0,0,0-4.609,5.215h-.625v-6.328h-6.8Z" transform="matrix(0.109, 0.994, -0.994, 0.109, 705.23, 330.26)" fill="#1d1d1b"/><path d="M18.867,0h6.641L38.477-44.492h.469L51.914,0h6.641L73.906-56.367H66.563L55.352-10.547h-.469L42.266-56.367H35.156L22.539-10.547H22.07L10.859-56.367H3.516Z" transform="translate(706.61 443.2) rotate(106.67)" fill="#1d1d1b"/><path d="M6.719,0h6.8V-24.922a13.928,13.928,0,0,1,1.348-6.367,9.756,9.756,0,0,1,3.809-4.1,11.288,11.288,0,0,1,5.82-1.445q5.039,0,7.441,2.754t2.4,8.457V0h6.8V-27.266a18.989,18.989,0,0,0-1.719-8.477,11.931,11.931,0,0,0-5-5.293,16.324,16.324,0,0,0-8.008-1.816A14.371,14.371,0,0,0,18.75-41a12.071,12.071,0,0,0-4.609,5.215h-.625V-58.828h-6.8Z" transform="translate(685.9 509.23) rotate(116.34)" fill="#1d1d1b"/><path d="M17.891.742a16.347,16.347,0,0,0,5.234-.8A13.338,13.338,0,0,0,27.4-2.422a14.462,14.462,0,0,0,3.223-3.789h.625V0h6.8V-28.828a14.538,14.538,0,0,0-1.855-7.52,12.068,12.068,0,0,0-5.43-4.824,20.432,20.432,0,0,0-8.73-1.68,21.691,21.691,0,0,0-8.008,1.387A14.742,14.742,0,0,0,8.3-37.6a11.317,11.317,0,0,0-2.754,5.8l-.039.234h6.8l.039-.117a6.684,6.684,0,0,1,3.242-3.809A12.686,12.686,0,0,1,21.8-36.836q4.727,0,7.09,2.051a7.46,7.46,0,0,1,2.363,5.957V-15.7a9.7,9.7,0,0,1-1.543,5.391,10.838,10.838,0,0,1-4.238,3.77A13.3,13.3,0,0,1,19.3-5.156,10.026,10.026,0,0,1,13.2-6.934a5.822,5.822,0,0,1-2.422-4.98v-.078a5.785,5.785,0,0,1,2.207-4.844Q15.2-18.555,20-18.828l14.648-.937V-25.2l-15.469.938q-7.344.43-11.348,3.613a10.63,10.63,0,0,0-4,8.809v.078A11.781,11.781,0,0,0,5.684-5.117,12.215,12.215,0,0,0,10.723-.781,16.4,16.4,0,0,0,17.891.742Z" transform="translate(668.32 544.96) rotate(123.19)" fill="#1d1d1b"/><path d="M21.289.313A16.708,16.708,0,0,0,23.281.2q.977-.117,1.953-.273V-5.859q-.937.078-1.582.117T22.109-5.7q-3.281,0-4.687-1.621t-1.406-5.332V-36.484h9.219v-5.625H16.016v-10.9H8.984v10.9H2.344v5.625H8.984v25.547q0,6.016,2.91,8.633T21.289.313Z" transform="translate(647.55 576.26) rotate(128.45)" fill="#1d1d1b"/><path d="M20.781.742a22.033,22.033,0,0,0,8.613-1.6A14.61,14.61,0,0,0,35.43-5.332a10.5,10.5,0,0,0,2.227-6.621v-.078a9.374,9.374,0,0,0-2.91-7.227q-2.91-2.7-8.848-4.141l-6.484-1.562a13.47,13.47,0,0,1-5.391-2.3,4.439,4.439,0,0,1-1.68-3.555V-30.9a5.076,5.076,0,0,1,1.133-3.281,7.531,7.531,0,0,1,3.086-2.207,11.656,11.656,0,0,1,4.453-.8,11.146,11.146,0,0,1,6.211,1.563,6.892,6.892,0,0,1,3.047,4.063h6.68a11.689,11.689,0,0,0-2.559-5.977,13.584,13.584,0,0,0-5.508-3.926,20.7,20.7,0,0,0-7.832-1.387,19.287,19.287,0,0,0-8.008,1.6,13.889,13.889,0,0,0-5.605,4.375,10.309,10.309,0,0,0-2.051,6.289v.039A9.679,9.679,0,0,0,8.164-23.3q2.773,2.715,8.672,4.121l6.523,1.563a13.417,13.417,0,0,1,5.625,2.441A4.68,4.68,0,0,1,30.7-11.523v.078a5.052,5.052,0,0,1-1.25,3.379,8.347,8.347,0,0,1-3.418,2.3,13.841,13.841,0,0,1-5.02.84,11.923,11.923,0,0,1-6.523-1.6,7.826,7.826,0,0,1-3.359-4.219H4.18A11.12,11.12,0,0,0,6.738-4.687a14.188,14.188,0,0,0,5.762,4A22.34,22.34,0,0,0,20.781.742Z" transform="translate(634.37 593.49) rotate(133.46)" fill="#1d1d1b"/><path d="M2.7,0h7.383L26.641-47.266h2.227v-9.1H23.477Zm9.414-16.133H41.953l-2.187-5.977H14.3ZM43.828,0h7.383L30.43-56.367H27.266v9.1Z" transform="matrix(-0.773, 0.634, -0.634, -0.773, 611.6, 618.45)" fill="#1d1d1b"/><path d="M6.328,14.063h6.8v-20.7h.625a12.506,12.506,0,0,0,3.145,3.906A14.87,14.87,0,0,0,21.426-.176a16.014,16.014,0,0,0,5.449.918,16.169,16.169,0,0,0,9.316-2.7,17.6,17.6,0,0,0,6.152-7.578,27.89,27.89,0,0,0,2.188-11.484v-.078a27.785,27.785,0,0,0-2.187-11.445,17.734,17.734,0,0,0-6.152-7.6,16.085,16.085,0,0,0-9.316-2.715,15.942,15.942,0,0,0-5.43.9,14.252,14.252,0,0,0-4.453,2.559,14.142,14.142,0,0,0-3.242,4h-.625v-6.719h-6.8ZM25.313-5.273a11.333,11.333,0,0,1-6.6-1.914,12.111,12.111,0,0,1-4.258-5.449,21.559,21.559,0,0,1-1.484-8.379v-.078a21.525,21.525,0,0,1,1.484-8.4,12.124,12.124,0,0,1,4.258-5.43,11.333,11.333,0,0,1,6.6-1.914,11.3,11.3,0,0,1,6.6,1.895,11.979,11.979,0,0,1,4.2,5.41,21.894,21.894,0,0,1,1.465,8.438v.078A21.928,21.928,0,0,1,36.113-12.6a11.967,11.967,0,0,1-4.2,5.43A11.3,11.3,0,0,1,25.313-5.273Z" transform="translate(575.2 648.32) rotate(148.41)" fill="#1d1d1b"/><path d="M6.328,14.063h6.8v-20.7h.625a12.506,12.506,0,0,0,3.145,3.906A14.87,14.87,0,0,0,21.426-.176a16.014,16.014,0,0,0,5.449.918,16.169,16.169,0,0,0,9.316-2.7,17.6,17.6,0,0,0,6.152-7.578,27.89,27.89,0,0,0,2.188-11.484v-.078a27.785,27.785,0,0,0-2.187-11.445,17.734,17.734,0,0,0-6.152-7.6,16.085,16.085,0,0,0-9.316-2.715,15.942,15.942,0,0,0-5.43.9,14.252,14.252,0,0,0-4.453,2.559,14.142,14.142,0,0,0-3.242,4h-.625v-6.719h-6.8ZM25.313-5.273a11.333,11.333,0,0,1-6.6-1.914,12.111,12.111,0,0,1-4.258-5.449,21.559,21.559,0,0,1-1.484-8.379v-.078a21.525,21.525,0,0,1,1.484-8.4,12.124,12.124,0,0,1,4.258-5.43,11.333,11.333,0,0,1,6.6-1.914,11.3,11.3,0,0,1,6.6,1.895,11.979,11.979,0,0,1,4.2,5.41,21.894,21.894,0,0,1,1.465,8.438v.078A21.928,21.928,0,0,1,36.113-12.6a11.967,11.967,0,0,1-4.2,5.43A11.3,11.3,0,0,1,25.313-5.273Z" transform="matrix(-0.911, 0.412, -0.412, -0.911, 540.87, 669.69)" fill="#1d1d1b"/><path d="M23.516.742a21.907,21.907,0,0,0,6.7-.957,17.667,17.667,0,0,0,5.176-2.578,15.466,15.466,0,0,0,3.574-3.633,12.939,12.939,0,0,0,1.934-4.16l.078-.312h-6.8l-.156.352a7.281,7.281,0,0,1-1.914,2.461,10.884,10.884,0,0,1-3.477,1.992,14.273,14.273,0,0,1-4.961.781,12.6,12.6,0,0,1-6.641-1.7A11.176,11.176,0,0,1,12.7-11.895a17.657,17.657,0,0,1-1.523-7.676v-2.7a18.265,18.265,0,0,1,1.563-7.969,11.408,11.408,0,0,1,4.238-4.9,11.284,11.284,0,0,1,6.074-1.66,11.4,11.4,0,0,1,6.016,1.582,10.6,10.6,0,0,1,4.1,4.785,19.472,19.472,0,0,1,1.484,8.164v2.7l3.359-4.961H7.734v5.43h33.75v-2.656a25.921,25.921,0,0,0-2.207-11.035,17.2,17.2,0,0,0-6.328-7.4,17.812,17.812,0,0,0-9.863-2.656,17.838,17.838,0,0,0-9.961,2.773,18.242,18.242,0,0,0-6.582,7.7A26.533,26.533,0,0,0,4.219-20.937v.039A26.339,26.339,0,0,0,6.543-9.434a17.4,17.4,0,0,0,6.641,7.52A19.331,19.331,0,0,0,23.516.742Z" transform="translate(503.99 686.52) rotate(162.67)" fill="#1d1d1b"/><path d="M6.328,0h6.8V-24.922a13.928,13.928,0,0,1,1.348-6.367,9.756,9.756,0,0,1,3.809-4.1,11.288,11.288,0,0,1,5.82-1.445q5.039,0,7.441,2.754t2.4,8.457V0h6.8V-27.266q0-7.5-3.809-11.543T26.016-42.852A14.371,14.371,0,0,0,18.359-41a12.071,12.071,0,0,0-4.609,5.215h-.625v-6.328h-6.8Z" transform="matrix(-0.983, 0.181, -0.181, -0.983, 468.11, 697.96)" fill="#1d1d1b"/><path d="M10.7,0H29.18A25.174,25.174,0,0,0,39.453-1.895,14.636,14.636,0,0,0,46-7.324a15.239,15.239,0,0,0,2.285-8.457v-.078a13.917,13.917,0,0,0-1.543-6.621,12.693,12.693,0,0,0-4.355-4.746,15.438,15.438,0,0,0-6.68-2.3v-.625a10.931,10.931,0,0,0,4.922-2.266,13.085,13.085,0,0,0,3.5-4.336,12,12,0,0,0,1.309-5.508v-.078a13.509,13.509,0,0,0-2.012-7.441,13.143,13.143,0,0,0-5.742-4.863,21.2,21.2,0,0,0-8.926-1.719H10.7v6.211H27.266q5.234,0,8.145,2.363a8.094,8.094,0,0,1,2.91,6.66v.078A7.68,7.68,0,0,1,35.1-34.336q-3.223,2.266-9.629,2.266H10.7v6.055H27.461a22.327,22.327,0,0,1,7.52,1.094,9.106,9.106,0,0,1,4.551,3.281,9.272,9.272,0,0,1,1.523,5.43v.078A8.77,8.77,0,0,1,37.773-8.75q-3.281,2.539-9.648,2.539H10.7ZM7.188,0h7.031V-56.367H7.188Z" transform="translate(354.73 706.24) rotate(-169.68)" fill="#1d1d1b"/><path d="M23.516.742a21.907,21.907,0,0,0,6.7-.957,17.667,17.667,0,0,0,5.176-2.578,15.466,15.466,0,0,0,3.574-3.633,12.939,12.939,0,0,0,1.934-4.16l.078-.312h-6.8l-.156.352a7.281,7.281,0,0,1-1.914,2.461,10.884,10.884,0,0,1-3.477,1.992,14.273,14.273,0,0,1-4.961.781,12.6,12.6,0,0,1-6.641-1.7A11.176,11.176,0,0,1,12.7-11.895a17.657,17.657,0,0,1-1.523-7.676v-2.7a18.265,18.265,0,0,1,1.563-7.969,11.408,11.408,0,0,1,4.238-4.9,11.284,11.284,0,0,1,6.074-1.66,11.4,11.4,0,0,1,6.016,1.582,10.6,10.6,0,0,1,4.1,4.785,19.472,19.472,0,0,1,1.484,8.164v2.7l3.359-4.961H7.734v5.43h33.75v-2.656a25.921,25.921,0,0,0-2.207-11.035,17.2,17.2,0,0,0-6.328-7.4,17.812,17.812,0,0,0-9.863-2.656,17.838,17.838,0,0,0-9.961,2.773,18.242,18.242,0,0,0-6.582,7.7A26.533,26.533,0,0,0,4.219-20.937v.039A26.339,26.339,0,0,0,6.543-9.434a17.4,17.4,0,0,0,6.641,7.52A19.331,19.331,0,0,0,23.516.742Z" transform="matrix(-0.953, -0.304, 0.304, -0.953, 310.68, 698.21)" fill="#1d1d1b"/><path d="M6.719,0h6.8V-58.828h-6.8Z" transform="matrix(-0.924, -0.382, 0.382, -0.924, 274.01, 686.07)" fill="#1d1d1b"/><path d="M6.719,0h6.8V-58.828h-6.8Z" transform="translate(260.12 680.36) rotate(-154.85)" fill="#1d1d1b"/><path d="M23.516.742a21.907,21.907,0,0,0,6.7-.957,17.667,17.667,0,0,0,5.176-2.578,15.466,15.466,0,0,0,3.574-3.633,12.939,12.939,0,0,0,1.934-4.16l.078-.312h-6.8l-.156.352a7.281,7.281,0,0,1-1.914,2.461,10.884,10.884,0,0,1-3.477,1.992,14.273,14.273,0,0,1-4.961.781,12.6,12.6,0,0,1-6.641-1.7A11.176,11.176,0,0,1,12.7-11.895a17.657,17.657,0,0,1-1.523-7.676v-2.7a18.265,18.265,0,0,1,1.563-7.969,11.408,11.408,0,0,1,4.238-4.9,11.284,11.284,0,0,1,6.074-1.66,11.4,11.4,0,0,1,6.016,1.582,10.6,10.6,0,0,1,4.1,4.785,19.472,19.472,0,0,1,1.484,8.164v2.7l3.359-4.961H7.734v5.43h33.75v-2.656a25.921,25.921,0,0,0-2.207-11.035,17.2,17.2,0,0,0-6.328-7.4,17.812,17.812,0,0,0-9.863-2.656,17.838,17.838,0,0,0-9.961,2.773,18.242,18.242,0,0,0-6.582,7.7A26.533,26.533,0,0,0,4.219-20.937v.039A26.339,26.339,0,0,0,6.543-9.434a17.4,17.4,0,0,0,6.641,7.52A19.331,19.331,0,0,0,23.516.742Z" transform="translate(247.16 674.94) rotate(-150.13)" fill="#1d1d1b"/><path d="M6.328,0h6.8V-24.922a13.928,13.928,0,0,1,1.348-6.367,9.756,9.756,0,0,1,3.809-4.1,11.288,11.288,0,0,1,5.82-1.445q5.039,0,7.441,2.754t2.4,8.457V0h6.8V-27.266q0-7.5-3.809-11.543T26.016-42.852A14.371,14.371,0,0,0,18.359-41a12.071,12.071,0,0,0-4.609,5.215h-.625v-6.328h-6.8Z" transform="translate(214.37 656.38) rotate(-143.32)" fill="#1d1d1b"/><path d="M7.188,0H13.75V-43.047h3.438L9.336-54.8,31.992,0H37.93l22.7-54.8L52.734-43.047h3.438V0h6.563V-56.367H54.57L35.273-9.336h-.625l-19.3-47.031H7.188Z" transform="matrix(-0.555, -0.832, 0.832, -0.555, 140.33, 591.83)" fill="#1d1d1b"/><path d="M17.891.742a16.347,16.347,0,0,0,5.234-.8A13.338,13.338,0,0,0,27.4-2.422a14.462,14.462,0,0,0,3.223-3.789h.625V0h6.8V-28.828a14.538,14.538,0,0,0-1.855-7.52,12.068,12.068,0,0,0-5.43-4.824,20.432,20.432,0,0,0-8.73-1.68,21.691,21.691,0,0,0-8.008,1.387A14.742,14.742,0,0,0,8.3-37.6a11.317,11.317,0,0,0-2.754,5.8l-.039.234h6.8l.039-.117a6.684,6.684,0,0,1,3.242-3.809A12.686,12.686,0,0,1,21.8-36.836q4.727,0,7.09,2.051a7.46,7.46,0,0,1,2.363,5.957V-15.7a9.7,9.7,0,0,1-1.543,5.391,10.838,10.838,0,0,1-4.238,3.77A13.3,13.3,0,0,1,19.3-5.156,10.026,10.026,0,0,1,13.2-6.934a5.822,5.822,0,0,1-2.422-4.98v-.078a5.785,5.785,0,0,1,2.207-4.844Q15.2-18.555,20-18.828l14.648-.937V-25.2l-15.469.938q-7.344.43-11.348,3.613a10.63,10.63,0,0,0-4,8.809v.078A11.781,11.781,0,0,0,5.684-5.117,12.215,12.215,0,0,0,10.723-.781,16.4,16.4,0,0,0,17.891.742Z" transform="translate(106.89 540.66) rotate(-115.13)" fill="#1d1d1b"/><path d="M6.484,0h6.8V-42.109h-6.8ZM9.922-50.234a4.488,4.488,0,0,0,3.32-1.387,4.54,4.54,0,0,0,1.367-3.3,4.52,4.52,0,0,0-1.367-3.32,4.52,4.52,0,0,0-3.32-1.367,4.54,4.54,0,0,0-3.3,1.367,4.488,4.488,0,0,0-1.387,3.32,4.508,4.508,0,0,0,1.387,3.3A4.508,4.508,0,0,0,9.922-50.234Z" transform="matrix(-0.349, -0.937, 0.937, -0.349, 91.16, 506.23)" fill="#1d1d1b"/><path d="M6.719,0h6.8V-58.828h-6.8Z" transform="translate(85.83 492.02) rotate(-107.73)" fill="#1d1d1b"/><path d="M23.516.742a21.907,21.907,0,0,0,6.7-.957,17.667,17.667,0,0,0,5.176-2.578,15.466,15.466,0,0,0,3.574-3.633,12.939,12.939,0,0,0,1.934-4.16l.078-.312h-6.8l-.156.352a7.281,7.281,0,0,1-1.914,2.461,10.884,10.884,0,0,1-3.477,1.992,14.273,14.273,0,0,1-4.961.781,12.6,12.6,0,0,1-6.641-1.7A11.176,11.176,0,0,1,12.7-11.895a17.657,17.657,0,0,1-1.523-7.676v-2.7a18.265,18.265,0,0,1,1.563-7.969,11.408,11.408,0,0,1,4.238-4.9,11.284,11.284,0,0,1,6.074-1.66,11.4,11.4,0,0,1,6.016,1.582,10.6,10.6,0,0,1,4.1,4.785,19.472,19.472,0,0,1,1.484,8.164v2.7l3.359-4.961H7.734v5.43h33.75v-2.656a25.921,25.921,0,0,0-2.207-11.035,17.2,17.2,0,0,0-6.328-7.4,17.812,17.812,0,0,0-9.863-2.656,17.838,17.838,0,0,0-9.961,2.773,18.242,18.242,0,0,0-6.582,7.7A26.533,26.533,0,0,0,4.219-20.937v.039A26.339,26.339,0,0,0,6.543-9.434a17.4,17.4,0,0,0,6.641,7.52A19.331,19.331,0,0,0,23.516.742Z" transform="translate(80.99 478.85) rotate(-102.99)" fill="#1d1d1b"/><path d="M6.328,0h6.8V-24.922a13.928,13.928,0,0,1,1.348-6.367,9.756,9.756,0,0,1,3.809-4.1,11.288,11.288,0,0,1,5.82-1.445q5.039,0,7.441,2.754t2.4,8.457V0h6.8V-27.266q0-7.5-3.809-11.543T26.016-42.852A14.371,14.371,0,0,0,18.359-41a12.071,12.071,0,0,0-4.609,5.215h-.625v-6.328h-6.8Z" transform="translate(72.29 442.2) rotate(-96.15)" fill="#1d1d1b"/><path d="M18.867,0h6.641L38.477-44.492h.469L51.914,0h6.641L73.906-56.367H66.563L55.352-10.547h-.469L42.266-56.367H35.156L22.539-10.547H22.07L10.859-56.367H3.516Z" transform="translate(68.78 344.22) rotate(-75.95)" fill="#1d1d1b"/><path d="M6.719,0h6.8V-24.922a13.928,13.928,0,0,1,1.348-6.367,9.756,9.756,0,0,1,3.809-4.1,11.288,11.288,0,0,1,5.82-1.445q5.039,0,7.441,2.754t2.4,8.457V0h6.8V-27.266a18.989,18.989,0,0,0-1.719-8.477,11.931,11.931,0,0,0-5-5.293,16.324,16.324,0,0,0-8.008-1.816A14.371,14.371,0,0,0,18.75-41a12.071,12.071,0,0,0-4.609,5.215h-.625V-58.828h-6.8Z" transform="translate(86.46 277.32) rotate(-66.27)" fill="#1d1d1b"/><path d="M17.891.742a16.347,16.347,0,0,0,5.234-.8A13.338,13.338,0,0,0,27.4-2.422a14.462,14.462,0,0,0,3.223-3.789h.625V0h6.8V-28.828a14.538,14.538,0,0,0-1.855-7.52,12.068,12.068,0,0,0-5.43-4.824,20.432,20.432,0,0,0-8.73-1.68,21.691,21.691,0,0,0-8.008,1.387A14.742,14.742,0,0,0,8.3-37.6a11.317,11.317,0,0,0-2.754,5.8l-.039.234h6.8l.039-.117a6.684,6.684,0,0,1,3.242-3.809A12.686,12.686,0,0,1,21.8-36.836q4.727,0,7.09,2.051a7.46,7.46,0,0,1,2.363,5.957V-15.7a9.7,9.7,0,0,1-1.543,5.391,10.838,10.838,0,0,1-4.238,3.77A13.3,13.3,0,0,1,19.3-5.156,10.026,10.026,0,0,1,13.2-6.934a5.822,5.822,0,0,1-2.422-4.98v-.078a5.785,5.785,0,0,1,2.207-4.844Q15.2-18.555,20-18.828l14.648-.937V-25.2l-15.469.938q-7.344.43-11.348,3.613a10.63,10.63,0,0,0-4,8.809v.078A11.781,11.781,0,0,0,5.684-5.117,12.215,12.215,0,0,0,10.723-.781,16.4,16.4,0,0,0,17.891.742Z" transform="matrix(0.509, -0.861, 0.861, 0.509, 102.37, 240.85)" fill="#1d1d1b"/><path d="M21.289.313A16.708,16.708,0,0,0,23.281.2q.977-.117,1.953-.273V-5.859q-.937.078-1.582.117T22.109-5.7q-3.281,0-4.687-1.621t-1.406-5.332V-36.484h9.219v-5.625H16.016v-10.9H8.984v10.9H2.344v5.625H8.984v25.547q0,6.016,2.91,8.633T21.289.313Z" transform="matrix(0.586, -0.81, 0.81, 0.586, 121.71, 208.63)" fill="#1d1d1b"/><path d="M20.781.742a22.033,22.033,0,0,0,8.613-1.6A14.61,14.61,0,0,0,35.43-5.332a10.5,10.5,0,0,0,2.227-6.621v-.078a9.374,9.374,0,0,0-2.91-7.227q-2.91-2.7-8.848-4.141l-6.484-1.562a13.47,13.47,0,0,1-5.391-2.3,4.439,4.439,0,0,1-1.68-3.555V-30.9a5.076,5.076,0,0,1,1.133-3.281,7.531,7.531,0,0,1,3.086-2.207,11.656,11.656,0,0,1,4.453-.8,11.146,11.146,0,0,1,6.211,1.563,6.892,6.892,0,0,1,3.047,4.063h6.68a11.689,11.689,0,0,0-2.559-5.977,13.584,13.584,0,0,0-5.508-3.926,20.7,20.7,0,0,0-7.832-1.387,19.287,19.287,0,0,0-8.008,1.6,13.889,13.889,0,0,0-5.605,4.375,10.309,10.309,0,0,0-2.051,6.289v.039A9.679,9.679,0,0,0,8.164-23.3q2.773,2.715,8.672,4.121l6.523,1.563a13.417,13.417,0,0,1,5.625,2.441A4.68,4.68,0,0,1,30.7-11.523v.078a5.052,5.052,0,0,1-1.25,3.379,8.347,8.347,0,0,1-3.418,2.3,13.841,13.841,0,0,1-5.02.84,11.923,11.923,0,0,1-6.523-1.6,7.826,7.826,0,0,1-3.359-4.219H4.18A11.12,11.12,0,0,0,6.738-4.687a14.188,14.188,0,0,0,5.762,4A22.34,22.34,0,0,0,20.781.742Z" transform="translate(134.1 190.83) rotate(-49.12)" fill="#1d1d1b"/><path d="M2.7,0h7.383L26.641-47.266h2.227v-9.1H23.477Zm9.414-16.133H41.953l-2.187-5.977H14.3ZM43.828,0h7.383L30.43-56.367H27.266v9.1Z" transform="translate(155.71 164.88) rotate(-41.94)" fill="#1d1d1b"/><path d="M6.328,14.063h6.8v-20.7h.625a12.506,12.506,0,0,0,3.145,3.906A14.87,14.87,0,0,0,21.426-.176a16.014,16.014,0,0,0,5.449.918,16.169,16.169,0,0,0,9.316-2.7,17.6,17.6,0,0,0,6.152-7.578,27.89,27.89,0,0,0,2.188-11.484v-.078a27.785,27.785,0,0,0-2.187-11.445,17.734,17.734,0,0,0-6.152-7.6,16.085,16.085,0,0,0-9.316-2.715,15.942,15.942,0,0,0-5.43.9,14.252,14.252,0,0,0-4.453,2.559,14.142,14.142,0,0,0-3.242,4h-.625v-6.719h-6.8ZM25.313-5.273a11.333,11.333,0,0,1-6.6-1.914,12.111,12.111,0,0,1-4.258-5.449,21.559,21.559,0,0,1-1.484-8.379v-.078a21.525,21.525,0,0,1,1.484-8.4,12.124,12.124,0,0,1,4.258-5.43,11.333,11.333,0,0,1,6.6-1.914,11.3,11.3,0,0,1,6.6,1.895,11.979,11.979,0,0,1,4.2,5.41,21.894,21.894,0,0,1,1.465,8.438v.078A21.928,21.928,0,0,1,36.113-12.6a11.967,11.967,0,0,1-4.2,5.43A11.3,11.3,0,0,1,25.313-5.273Z" transform="translate(190.73 133.38) rotate(-34.18)" fill="#1d1d1b"/><path d="M6.328,14.063h6.8v-20.7h.625a12.506,12.506,0,0,0,3.145,3.906A14.87,14.87,0,0,0,21.426-.176a16.014,16.014,0,0,0,5.449.918,16.169,16.169,0,0,0,9.316-2.7,17.6,17.6,0,0,0,6.152-7.578,27.89,27.89,0,0,0,2.188-11.484v-.078a27.785,27.785,0,0,0-2.187-11.445,17.734,17.734,0,0,0-6.152-7.6,16.085,16.085,0,0,0-9.316-2.715,15.942,15.942,0,0,0-5.43.9,14.252,14.252,0,0,0-4.453,2.559,14.142,14.142,0,0,0-3.242,4h-.625v-6.719h-6.8ZM25.313-5.273a11.333,11.333,0,0,1-6.6-1.914,12.111,12.111,0,0,1-4.258-5.449,21.559,21.559,0,0,1-1.484-8.379v-.078a21.525,21.525,0,0,1,1.484-8.4,12.124,12.124,0,0,1,4.258-5.43,11.333,11.333,0,0,1,6.6-1.914,11.3,11.3,0,0,1,6.6,1.895,11.979,11.979,0,0,1,4.2,5.41,21.894,21.894,0,0,1,1.465,8.438v.078A21.928,21.928,0,0,1,36.113-12.6a11.967,11.967,0,0,1-4.2,5.43A11.3,11.3,0,0,1,25.313-5.273Z" transform="translate(224.07 110.47) rotate(-26.96)" fill="#1d1d1b"/><path d="M23.516.742a21.907,21.907,0,0,0,6.7-.957,17.667,17.667,0,0,0,5.176-2.578,15.466,15.466,0,0,0,3.574-3.633,12.939,12.939,0,0,0,1.934-4.16l.078-.312h-6.8l-.156.352a7.281,7.281,0,0,1-1.914,2.461,10.884,10.884,0,0,1-3.477,1.992,14.273,14.273,0,0,1-4.961.781,12.6,12.6,0,0,1-6.641-1.7A11.176,11.176,0,0,1,12.7-11.895a17.657,17.657,0,0,1-1.523-7.676v-2.7a18.265,18.265,0,0,1,1.563-7.969,11.408,11.408,0,0,1,4.238-4.9,11.284,11.284,0,0,1,6.074-1.66,11.4,11.4,0,0,1,6.016,1.582,10.6,10.6,0,0,1,4.1,4.785,19.472,19.472,0,0,1,1.484,8.164v2.7l3.359-4.961H7.734v5.43h33.75v-2.656a25.921,25.921,0,0,0-2.207-11.035,17.2,17.2,0,0,0-6.328-7.4,17.812,17.812,0,0,0-9.863-2.656,17.838,17.838,0,0,0-9.961,2.773,18.242,18.242,0,0,0-6.582,7.7A26.533,26.533,0,0,0,4.219-20.937v.039A26.339,26.339,0,0,0,6.543-9.434a17.4,17.4,0,0,0,6.641,7.52A19.331,19.331,0,0,0,23.516.742Z" transform="translate(260.17 91.98) rotate(-19.94)" fill="#1d1d1b"/><path d="M6.328,0h6.8V-24.922a13.928,13.928,0,0,1,1.348-6.367,9.756,9.756,0,0,1,3.809-4.1,11.288,11.288,0,0,1,5.82-1.445q5.039,0,7.441,2.754t2.4,8.457V0h6.8V-27.266q0-7.5-3.809-11.543T26.016-42.852A14.371,14.371,0,0,0,18.359-41a12.071,12.071,0,0,0-4.609,5.215h-.625v-6.328h-6.8Z" transform="translate(295.48 78.91) rotate(-13.07)" fill="#1d1d1b"/></g></svg>